<?xml version="1.0" encoding="utf-8"?>
<!-- Generator: Adobe Illustrator 27.5.0, SVG Export Plug-In . SVG Version: 6.00 Build 0)  -->
<svg version="1.1" id="Layer_1" xmlns="http://www.w3.org/2000/svg" xmlns:xlink="http://www.w3.org/1999/xlink" x="0px" y="0px"
	 viewBox="0 0 288 288" style="enable-background:new 0 0 288 288;" xml:space="preserve">
<g>
	<rect y="0" style="fill:#DFF2D3;" width="288" height="288"/>
	<radialGradient id="SVGID_1_" cx="133.3229" cy="157.347" r="111.1181" gradientUnits="userSpaceOnUse">
		<stop  offset="0.6816" style="stop-color:#006747"/>
		<stop  offset="0.6959" style="stop-color:#197659"/>
		<stop  offset="0.7294" style="stop-color:#4E9680"/>
		<stop  offset="0.7643" style="stop-color:#7EB2A2"/>
		<stop  offset="0.7997" style="stop-color:#A5CABE"/>
		<stop  offset="0.836" style="stop-color:#C6DDD6"/>
		<stop  offset="0.8732" style="stop-color:#DFECE8"/>
		<stop  offset="0.9119" style="stop-color:#F1F7F5"/>
		<stop  offset="0.9528" style="stop-color:#FCFDFD"/>
		<stop  offset="1" style="stop-color:#FFFFFF"/>
	</radialGradient>
	<circle style="fill:url(#SVGID_1_);" cx="133.323" cy="157.347" r="111.118"/>
	<g>
		
			<linearGradient id="SVGID_00000019668327316706197200000008825537188992443558_" gradientUnits="userSpaceOnUse" x1="191.6361" y1="65.4106" x2="62.3761" y2="277.8464">
			<stop  offset="0" style="stop-color:#7ABD39"/>
			<stop  offset="0.0519" style="stop-color:#71B937"/>
			<stop  offset="0.3613" style="stop-color:#41A12C"/>
			<stop  offset="0.6336" style="stop-color:#1D9025"/>
			<stop  offset="0.8557" style="stop-color:#088620"/>
			<stop  offset="1" style="stop-color:#00821E"/>
		</linearGradient>
		<path style="fill:url(#SVGID_00000019668327316706197200000008825537188992443558_);" d="M212.542,216.069
			c-1.222,3.88-5.514,7.541-9.537,8.14c-4.024,0.598-9.104,3.893-11.288,7.326c-2.184,3.433-7.278,5.861-11.319,5.395
			c-4.042-0.465-9.801,1.405-12.799,4.156c-2.998,2.751-8.546,3.779-12.33,2.283c-3.784-1.495-9.831-1.179-13.438,0.7
			c-3.607,1.879-9.233,1.434-12.501-0.987c-3.268-2.421-9.191-3.681-13.163-2.801c-3.971,0.881-9.29-1.003-11.82-4.19
			c-2.529-3.187-7.925-5.935-11.989-6.111c-4.064-0.176-8.714-3.372-10.333-7.105c-1.618-3.733-6.118-7.785-9.998-9.007
			c-3.88-1.222-7.544-5.513-8.142-9.538c-0.597-4.026-3.895-9.105-7.326-11.289c-3.432-2.184-5.86-7.277-5.396-11.317
			c0.464-4.04-1.405-9.801-4.154-12.799c-2.75-2.998-3.776-8.547-2.282-12.33c1.494-3.784,1.179-9.831-0.701-13.439
			c-1.88-3.608-1.436-9.234,0.987-12.502c2.423-3.268,3.683-9.191,2.802-13.162c-0.882-3.97,1.003-9.289,4.188-11.819
			c3.186-2.529,5.935-7.925,6.111-11.988c0.176-4.064,3.373-8.714,7.105-10.332c3.732-1.619,7.785-6.119,9.007-9.999
			c1.222-3.88,5.514-7.545,9.537-8.141c4.024-0.597,9.104-3.895,11.288-7.326c2.184-3.433,7.278-5.861,11.319-5.397
			c4.042,0.464,9.801-1.405,12.799-4.154c2.998-2.75,8.546-3.776,12.33-2.282c3.784,1.494,9.831,1.179,13.438-0.701
			c3.607-1.881,9.233-1.436,12.501,0.987c3.268,2.422,9.191,3.684,13.163,2.8c3.971-0.882,9.29,1.003,11.82,4.19
			c2.529,3.185,7.925,5.935,11.989,6.111c4.064,0.176,8.714,3.373,10.332,7.105c1.618,3.733,6.118,7.786,9.998,9.007
			c3.88,1.222,7.544,5.513,8.142,9.538c0.597,4.024,3.895,9.104,7.326,11.288c3.432,2.184,5.86,7.278,5.396,11.319
			c-0.464,4.04,1.405,9.801,4.154,12.799c2.749,2.998,3.776,8.547,2.282,12.33c-1.494,3.783-1.179,9.83,0.701,13.437
			c1.88,3.608,1.436,9.234-0.987,12.502c-2.423,3.268-3.683,9.191-2.802,13.162c0.882,3.972-1.003,9.289-4.188,11.818
			c-3.186,2.53-5.935,7.924-6.111,11.988c-0.176,4.064-3.373,8.716-7.105,10.335C217.816,207.689,213.764,212.189,212.542,216.069z"
			/>
		
			<linearGradient id="SVGID_00000114778239611699149730000005325465738923813275_" gradientUnits="userSpaceOnUse" x1="210.2527" y1="106.5434" x2="65.2748" y2="157.3119">
			<stop  offset="0.005" style="stop-color:#7AB85F"/>
			<stop  offset="0.0757" style="stop-color:#6BA153"/>
			<stop  offset="0.2412" style="stop-color:#4A703A"/>
			<stop  offset="0.4056" style="stop-color:#304825"/>
			<stop  offset="0.5659" style="stop-color:#1B2815"/>
			<stop  offset="0.721" style="stop-color:#0C1209"/>
			<stop  offset="0.8683" style="stop-color:#030502"/>
			<stop  offset="1" style="stop-color:#000000"/>
		</linearGradient>
		<path style="fill:url(#SVGID_00000114778239611699149730000005325465738923813275_);" d="M207.58,73.683
			c-1.934-1.661-3.587-3.699-4.434-5.651c-1.585-3.656-6.141-6.788-10.123-6.961c-3.982-0.172-9.268-2.866-11.746-5.987
			c-2.478-3.122-7.689-4.969-11.58-4.105c-3.891,0.865-9.694-0.37-12.896-2.744c-3.202-2.374-8.714-2.81-12.247-0.967
			c-3.534,1.842-9.458,2.151-13.165,0.687c-3.707-1.464-9.143-0.458-12.08,2.236c-2.937,2.694-8.579,4.525-12.539,4.07
			c-3.96-0.455-8.95,1.924-11.09,5.287c-2.14,3.362-7.117,6.592-11.059,7.178c-3.942,0.584-8.147,4.174-9.344,7.976
			c-1.197,3.801-5.168,8.21-8.824,9.797c-3.656,1.585-6.788,6.141-6.961,10.123c-0.173,3.98-2.866,9.267-5.987,11.745
			c-3.121,2.478-4.967,7.689-4.103,11.579c0.864,3.891-0.371,9.694-2.745,12.895c-2.374,3.202-2.809,8.713-0.967,12.248
			c1.842,3.535,2.151,9.459,0.687,13.166c-1.464,3.706-0.458,9.143,2.236,12.08c2.694,2.937,4.525,8.581,4.07,12.539
			c-0.455,3.958,1.924,8.948,5.286,11.088c3.362,2.14,6.593,7.116,7.178,11.06c0.585,3.943,4.175,8.147,7.977,9.344
			c3.801,1.197,8.21,5.166,9.795,8.824c1.586,3.657,6.141,6.788,10.123,6.961c3.624,0.157,8.321,2.403,11.005,5.159
			C109.334,136.794,147.748,102.721,207.58,73.683z"/>
		<path style="fill:#03252B;" d="M47.815,117.494c0.882,3.972-0.378,9.894-2.802,13.162c-2.423,3.268-2.867,8.894-0.987,12.502
			c1.88,3.608,2.195,9.655,0.701,13.439c-1.494,3.783-0.467,9.332,2.282,12.33c1.546,1.686,2.814,4.245,3.545,6.881h188.474
			c0.202-1.34,0.193-2.672-0.075-3.88c-0.882-3.972,0.378-9.894,2.802-13.162c2.423-3.268,2.867-8.894,0.987-12.502
			c-1.88-3.607-2.195-9.654-0.701-13.437c1.494-3.783,0.467-9.332-2.282-12.33c-1.547-1.687-2.815-4.247-3.546-6.884H47.74
			C47.537,114.954,47.546,116.287,47.815,117.494z"/>
		
			<linearGradient id="SVGID_00000083066126701479153420000007325582113528650412_" gradientUnits="userSpaceOnUse" x1="95.5978" y1="192.4974" x2="193.8222" y2="94.273">
			<stop  offset="0" style="stop-color:#7ABD39"/>
			<stop  offset="0.0519" style="stop-color:#71B937"/>
			<stop  offset="0.3613" style="stop-color:#41A12C"/>
			<stop  offset="0.6336" style="stop-color:#1D9025"/>
			<stop  offset="0.8557" style="stop-color:#088620"/>
			<stop  offset="1" style="stop-color:#00821E"/>
		</linearGradient>
		<circle style="fill:url(#SVGID_00000083066126701479153420000007325582113528650412_);" cx="143.384" cy="144.711" r="69.668"/>
		
			<ellipse transform="matrix(0.1602 -0.9871 0.9871 0.1602 -22.4262 263.0636)" style="fill:#03252B;" cx="143.384" cy="144.711" rx="67.295" ry="67.295"/>
		<g>
			<path style="fill:#DFF2D3;" d="M104.729,157.494c0.028,0.379,0.058,0.912,0.087,1.596c0.029,0.685,0.051,1.239,0.066,1.662
				c0.014,0.423,0.028,0.955,0.043,1.596c0.015,0.642,0.022,1.189,0.022,1.64c0,0.452-0.008,0.983-0.022,1.596
				c-0.015,0.612-0.037,1.166-0.064,1.662c-0.03,0.496-0.074,1.021-0.132,1.574c-0.059,0.554-0.132,1.093-0.219,1.618
				c-0.146,0.787-0.343,1.553-0.591,2.296c-0.248,0.743-0.583,1.48-1.005,2.208c-0.423,0.729-0.911,1.312-1.465,1.749
				c-0.554,0.438-1.21,0.751-1.968,0.94c-0.758,0.19-1.59,0.139-2.492-0.153c-0.816-0.262-1.517-0.627-2.1-1.093
				c-0.583-0.466-1.049-1.042-1.398-1.728c-0.35-0.685-0.627-1.348-0.831-1.989c-0.204-0.641-0.394-1.414-0.569-2.318
				c-0.757-3.935-1.078-7.958-0.961-12.068c0.029-0.087,0.147-2.317,0.35-6.69c0-0.058,0.007-0.219,0.021-0.481
				c0.015-0.262,0.021-0.437,0.021-0.524s0.016-0.255,0.045-0.503c0.028-0.247,0.05-0.43,0.065-0.546
				c0.015-0.116,0.037-0.284,0.066-0.503c0.028-0.219,0.065-0.393,0.109-0.525c0.043-0.131,0.087-0.284,0.131-0.459
				c0.044-0.175,0.102-0.342,0.175-0.503c0.072-0.16,0.138-0.313,0.196-0.459c0.467-0.816,1.101-1.421,1.902-1.815
				c0.802-0.394,1.654-0.546,2.559-0.459c0.35-0.262,0.743-0.364,1.18-0.306c0.438,0.059,0.838,0.175,1.203,0.35
				c0.364,0.175,0.75,0.444,1.158,0.809c0.408,0.365,0.744,0.7,1.006,1.006c0.263,0.306,0.525,0.634,0.787,0.984
				c0.963,1.283,1.618,2.711,1.969,4.285C104.423,153.515,104.642,155.366,104.729,157.494z M101.362,172.711
				c0.612-1.662,0.983-3.644,1.115-5.947c0.132-2.302,0.109-4.343-0.065-6.122c-0.029-0.378-0.051-1.144-0.066-2.296
				c-0.014-1.151-0.043-2.018-0.087-2.602c-0.044-0.583-0.146-1.319-0.306-2.208c-0.16-0.889-0.372-1.684-0.635-2.383
				c-0.35-0.874-0.903-1.763-1.661-2.667c-0.204-0.233-0.423-0.481-0.655-0.743c-0.322,0.087-0.613,0.059-0.875-0.087
				c-0.205-0.146-0.408-0.262-0.612-0.35c-0.38,0.175-0.759,0.117-1.138-0.175c-0.523,0-0.977,0.139-1.355,0.415
				c-0.379,0.277-0.641,0.678-0.787,1.203c-0.116,0.408-0.203,0.868-0.262,1.377c-0.059,0.51-0.095,0.933-0.109,1.268
				c-0.016,0.335-0.037,0.824-0.065,1.465c-0.029,0.641-0.044,1.079-0.044,1.311c-0.291,5.51-0.219,9.708,0.219,12.593
				c0.408,2.886,0.801,4.869,1.181,5.947c0.583,1.545,1.574,2.376,2.974,2.493C99.613,175.32,100.691,174.489,101.362,172.711z"/>
			<path style="fill:#DFF2D3;" d="M116.644,170.197c0.307,1.414,0.605,2.682,0.896,3.804c0.291,1.123,0.627,2.165,1.006,3.126
				c0.233,0.612,0.059,1.064-0.525,1.355c-0.583,0.292-1.078,0.248-1.486-0.131c-0.35-0.32-0.598-0.568-0.743-0.743
				c-0.38-0.408-0.423-0.874-0.132-1.399c-0.408-1.253-0.874-3.067-1.398-5.444c-0.525-2.375-0.89-3.928-1.094-4.657
				c-0.174-0.67-0.438-1.654-0.787-2.952c-0.35-1.297-0.611-2.281-0.787-2.952c0,0.175-0.007,0.365-0.021,0.568
				c-0.016,0.205-0.021,0.401-0.021,0.59c0,0.19,0,0.372,0,0.547c-0.029,1.545-0.008,3.885,0.065,7.018
				c0.072,3.134,0.095,5.473,0.065,7.018c0,0.496-0.204,0.846-0.612,1.049c-0.408,0.205-0.816,0.205-1.224,0
				c-0.409-0.204-0.613-0.553-0.613-1.049c0.029-1.458,0.008-3.884-0.064-7.28c-0.073-3.396-0.066-5.838,0.021-7.324
				c0.262-6.035,0.438-10.596,0.524-13.686c-0.233-0.233-0.343-0.525-0.327-0.874c0.014-0.35,0.182-0.627,0.502-0.831
				c0.963-0.612,1.975-0.837,3.039-0.678c1.064,0.161,2.025,0.532,2.887,1.115c0.859,0.583,1.544,1.377,2.055,2.383
				c0.51,1.006,0.691,2.034,0.547,3.083c-0.176,1.458-0.723,2.544-1.641,3.257c-0.918,0.715-2.15,1.261-3.694,1.64l0.131,0.481
				c0.058,0.175,0.132,0.43,0.219,0.765c0.087,0.335,0.16,0.59,0.219,0.765c0.146,0.583,0.378,1.443,0.7,2.58l1.574,5.641
				C116.097,167.712,116.337,168.783,116.644,170.197z M115.704,152.728c0.32-0.845,0.35-1.676,0.087-2.493
				c-0.263-0.816-0.765-1.493-1.509-2.033c-0.743-0.539-1.523-0.75-2.34-0.634c0.029,1.924,0,4.256-0.087,6.996
				c0.116-0.029,0.32-0.072,0.612-0.131c0.291-0.058,0.51-0.102,0.656-0.131c0.145-0.029,0.35-0.08,0.611-0.153
				c0.263-0.072,0.475-0.153,0.635-0.24c0.16-0.087,0.334-0.182,0.524-0.284c0.189-0.102,0.351-0.233,0.481-0.394
				C115.507,153.07,115.617,152.903,115.704,152.728z"/>
			<path style="fill:#DFF2D3;" d="M123.224,168.207c-0.059-3.439,0.176-7.696,0.7-12.768c0-0.233,0.05-0.896,0.153-1.99
				c0.102-1.093,0.182-1.865,0.24-2.317c0.058-0.452,0.182-1.078,0.371-1.88c0.189-0.802,0.416-1.494,0.678-2.077
				c0.583-1.312,1.436-2.215,2.559-2.711c1.121-0.496,2.354-0.422,3.695,0.218c1.31,0.729,2.185,1.721,2.623,2.974
				c0.438,1.253,0.612,2.77,0.524,4.547c0,0.438-0.175,0.744-0.524,0.918c-0.35,0.175-0.699,0.175-1.049,0
				c-0.351-0.175-0.541-0.481-0.569-0.918c-0.029-0.553-0.051-1.012-0.065-1.378c-0.016-0.364-0.088-0.845-0.219-1.443
				c-0.131-0.597-0.291-1.078-0.48-1.443c-0.19-0.364-0.481-0.685-0.875-0.962c-0.394-0.277-0.867-0.416-1.421-0.416
				c-0.409,0-0.772,0.117-1.093,0.35c-0.322,0.234-0.568,0.496-0.744,0.787c-0.175,0.292-0.343,0.693-0.502,1.203
				c-0.161,0.51-0.264,0.904-0.307,1.181c-0.044,0.277-0.096,0.664-0.153,1.159c-0.816,5.597-1.181,11.122-1.093,16.572
				c0,0.03,0.007,0.27,0.021,0.722c0.015,0.452,0.021,0.736,0.021,0.853c0,0.117,0.016,0.379,0.045,0.787
				c0.028,0.409,0.058,0.7,0.087,0.874c0.028,0.175,0.072,0.438,0.132,0.787c0.057,0.35,0.131,0.627,0.218,0.831
				c0.087,0.204,0.182,0.445,0.284,0.721c0.102,0.277,0.233,0.518,0.394,0.722c0.16,0.204,0.343,0.393,0.547,0.568
				c0.437,0.379,0.976,0.715,1.618,1.006c0.641,0.292,1.165,0.321,1.574,0.087c0.611-0.378,1.107-1.064,1.486-2.055
				c0.408-1.049,0.771-2.668,1.094-4.854c0.174-1.428,0.275-2.289,0.305-2.58c0.059-0.962,0.073-1.487,0.045-1.574
				c-0.029-0.087-0.074-0.233-0.132-0.437c-0.029,0-0.095-0.015-0.196-0.044c-0.103-0.029-0.168-0.044-0.197-0.044
				c-0.204-0.058-0.48-0.124-0.83-0.197c-0.35-0.073-0.555-0.124-0.613-0.153c-0.029,0-0.072-0.014-0.131-0.044
				c-0.408-0.088-0.721-0.167-0.939-0.241c-0.219-0.072-0.453-0.219-0.7-0.438c-0.248-0.218-0.356-0.488-0.327-0.809
				c0-0.408,0.159-0.7,0.48-0.874c0.116-0.058,0.24-0.094,0.371-0.109c0.132-0.015,0.233-0.022,0.307-0.022
				c0.072,0,0.203,0.029,0.393,0.087c0.189,0.059,0.298,0.087,0.327,0.087c0.408,0.087,0.919,0.175,1.531,0.263
				c0.466,0.087,0.816,0.153,1.049,0.197c0.233,0.044,0.518,0.153,0.854,0.328c0.334,0.175,0.605,0.409,0.809,0.7
				c0.175,0.234,0.232,0.496,0.175,0.787c0.175,0.438,0.269,0.962,0.284,1.574c0.015,0.612-0.008,1.13-0.066,1.552
				c-0.059,0.423-0.161,1.006-0.306,1.749c-0.146,0.743-0.234,1.218-0.263,1.421c-0.146,1.021-0.277,1.822-0.394,2.405
				c-0.117,0.583-0.344,1.29-0.678,2.121c-0.336,0.831-0.736,1.538-1.203,2.121c-1.02,1.079-2.207,1.582-3.563,1.509
				c-1.357-0.072-2.588-0.605-3.695-1.596c-0.729-0.641-1.298-1.472-1.705-2.492c-0.409-1.02-0.664-1.961-0.766-2.82
				C123.319,170.43,123.253,169.403,123.224,168.207z"/>
			<path style="fill:#DFF2D3;" d="M152.128,168.338c0.35,3.585,0.727,6.107,1.137,7.564c0.145,0.496,0.05,0.896-0.285,1.203
				c-0.335,0.306-0.729,0.416-1.18,0.328c-0.453-0.087-0.736-0.364-0.854-0.831c-0.438-1.486-0.83-3.92-1.18-7.302
				c-0.059-1.02-0.161-2.04-0.307-3.061c-0.438-0.116-1.355-0.16-2.755-0.131c-1.487,0.059-2.245,0.087-2.274,0.087
				c-0.553,2.449-0.903,4.329-1.049,5.641c-0.029,0.204-0.065,0.54-0.109,1.006c-0.043,0.467-0.08,0.831-0.109,1.093
				c-0.029,0.262-0.072,0.59-0.131,0.984c-0.059,0.393-0.139,0.758-0.24,1.093c-0.104,0.335-0.227,0.649-0.372,0.94
				c-0.233,0.379-0.524,0.568-0.874,0.568c-0.35,0-0.649-0.175-0.896-0.525c-0.248-0.35-0.285-0.728-0.109-1.137
				c0.291-0.641,0.495-1.698,0.611-3.17c0.117-1.472,0.204-2.339,0.263-2.602c0.438-2.594,0.991-5.378,1.661-8.352
				c0.088-0.408,0.285-1.29,0.591-2.645c0.306-1.355,0.518-2.303,0.634-2.842c0.117-0.539,0.313-1.392,0.591-2.558
				c0.276-1.166,0.51-2.105,0.7-2.82c0.188-0.714,0.414-1.552,0.678-2.514c0.262-0.962,0.539-1.865,0.83-2.711
				c0.175-0.583,0.547-0.867,1.115-0.853c0.568,0.015,0.954,0.299,1.158,0.853c0.146,0.409,0.263,0.831,0.35,1.268
				c0.088,0.438,0.154,0.896,0.197,1.378c0.044,0.481,0.08,0.918,0.109,1.312c0.029,0.393,0.051,0.868,0.065,1.421
				c0.015,0.554,0.036,0.992,0.065,1.312c0.029,0.496,0.066,1.013,0.109,1.552c0.044,0.54,0.102,1.079,0.176,1.618
				c0.072,0.54,0.145,1.05,0.219,1.531c0.072,0.481,0.152,1.021,0.24,1.618c0.087,0.598,0.16,1.115,0.219,1.552
				c0.058,0.525,0.219,1.757,0.48,3.695C151.865,165.839,152.04,167.318,152.128,168.338z M147.711,163.922
				c0.612-0.058,1.078-0.072,1.399-0.044c-0.029-0.291-0.081-0.729-0.153-1.312c-0.073-0.583-0.124-1.006-0.153-1.268
				c-0.059-0.378-0.227-1.559-0.502-3.542c-0.277-1.982-0.46-3.498-0.547-4.547c0-0.145-0.008-0.356-0.021-0.634
				c-0.016-0.276-0.022-0.488-0.022-0.634c-0.467,1.837-1.355,5.656-2.667,11.457c0,0.146-0.044,0.365-0.131,0.656
				C146.165,163.965,147.099,163.922,147.711,163.922z"/>
			<path style="fill:#DFF2D3;" d="M168.743,175.072c0,0.467-0.168,0.809-0.504,1.027c-0.335,0.219-0.707,0.263-1.115,0.131
				c-0.408-0.131-0.67-0.4-0.786-0.809c-3.323-10.232-5.539-17.111-6.646-20.639c0.087,1.982,0.291,5.415,0.612,10.297
				c0.32,4.883,0.524,8.651,0.611,11.304c0.029,0.496-0.152,0.846-0.546,1.049c-0.394,0.204-0.802,0.204-1.225,0
				c-0.423-0.204-0.649-0.554-0.678-1.049c-0.087-0.729-0.145-1.268-0.175-1.618c-0.059-0.204-0.044-0.408,0.043-0.612
				c-0.059-1.924-0.226-4.78-0.502-8.57c-0.277-3.789-0.48-7.2-0.612-10.232c-0.132-3.031-0.138-5.903-0.022-8.614
				c0.029-0.291,0.125-0.531,0.285-0.721c0.16-0.189,0.35-0.306,0.568-0.35c0.219-0.043,0.438-0.043,0.656,0
				c0.218,0.044,0.407,0.161,0.568,0.35c0.159,0.19,0.24,0.43,0.24,0.721c0.028,0.087,0.043,0.19,0.043,0.306
				c1.107,3.47,3.439,10.567,6.996,21.295c0.291-4.518,0.438-7.492,0.438-8.92c0-0.612-0.008-1.581-0.021-2.908
				c-0.016-1.326-0.021-2.383-0.021-3.17c0-0.787,0.021-1.742,0.066-2.864c0.044-1.122,0.138-2.135,0.284-3.039
				c-0.408-0.437-0.453-0.889-0.131-1.355c0.232-0.32,0.48-0.612,0.742-0.874c0.438-0.466,0.912-0.532,1.422-0.197
				c0.51,0.335,0.721,0.809,0.634,1.421c-0.292,1.312-0.466,2.697-0.524,4.154c-0.059,1.458-0.066,3.17-0.021,5.138
				c0.043,1.968,0.05,3.374,0.021,4.22c-0.029,1.545-0.153,4.008-0.371,7.39C168.853,170.715,168.743,173.294,168.743,175.072z"/>
			<path style="fill:#DFF2D3;" d="M174.689,147.437c-0.408,0.029-0.707-0.138-0.896-0.503c-0.19-0.364-0.196-0.721-0.022-1.071
				l0.044-0.043c0.204-0.408,0.51-0.597,0.919-0.569c0.145,0.03,0.837,0.117,2.076,0.263c1.239,0.146,2.193,0.204,2.864,0.175
				c0.495,0,0.838,0.19,1.028,0.568c0.189,0.379,0.182,0.773-0.022,1.181c-0.204,0.409-0.54,0.642-1.006,0.7
				c-0.263,0.029-0.54,0.029-0.831,0c0.088,5.335,0.059,9.576-0.087,12.725c-0.029,0.758-0.06,2.004-0.087,3.738
				c-0.029,1.735-0.074,3.068-0.132,4.001c0,0.292-0.015,0.7-0.044,1.225c-0.029,0.524-0.059,0.962-0.088,1.311
				c-0.029,0.35-0.043,0.751-0.043,1.203c0,0.452,0.014,0.89,0.043,1.312c0.029,0.423,0.073,0.838,0.132,1.246
				c0.438-0.029,0.802-0.102,1.093-0.219c0.467-0.146,0.854-0.058,1.159,0.262c0.306,0.321,0.415,0.715,0.328,1.181
				c-0.088,0.467-0.365,0.773-0.831,0.918c-1.078,0.35-2.697,0.321-4.854-0.087c-0.146-0.029-0.292-0.102-0.438-0.219
				c-0.146-0.087-0.262-0.204-0.35-0.35c-0.146-0.292-0.153-0.59-0.021-0.896c0.131-0.306,0.342-0.503,0.634-0.59
				c0.204-0.058,0.364-0.087,0.481-0.087h0.306c-0.117-0.933-0.103-2.842,0.044-5.729c0.028-0.933,0.064-2.31,0.109-4.132
				c0.043-1.822,0.094-3.185,0.152-4.088c0.059-1.195,0.095-2.587,0.109-4.176c0.015-1.588,0.021-3.163,0.021-4.722
				c0-1.559,0.045-2.952,0.132-4.176c-0.117,0-0.27-0.022-0.46-0.066c-0.189-0.043-0.327-0.065-0.414-0.065
				c-0.088-0.029-0.213-0.065-0.372-0.109c-0.161-0.044-0.256-0.065-0.284-0.065c-0.117,0.029-0.263,0.015-0.438-0.044H174.689z"/>
			<path style="fill:#DFF2D3;" d="M196.99,167.42c0.379,0.642,0.561,1.443,0.547,2.405c-0.015,0.962-0.139,1.852-0.371,2.667
				c-0.234,0.817-0.54,1.604-0.918,2.361c-0.643,1.371-1.553,2.339-2.733,2.908c-1.181,0.569-2.471,0.547-3.87-0.066
				c-0.524-0.262-1.006-0.575-1.443-0.94c-0.438-0.364-0.802-0.787-1.093-1.268c-0.292-0.481-0.546-0.925-0.765-1.334
				c-0.219-0.408-0.395-0.94-0.525-1.596c-0.131-0.656-0.24-1.195-0.328-1.618c-0.087-0.422-0.146-1.005-0.174-1.749
				c-0.03-0.743-0.045-1.297-0.045-1.662c0-0.364,0.008-0.94,0.022-1.727c0.015-0.787,0.023-1.312,0.023-1.574
				c0-3.789,0.087-8.074,0.262-12.855c0.059-1.603,0.307-3.003,0.743-4.198c0.438-1.195,1.253-2.055,2.448-2.58
				c0.934-0.466,1.771-0.604,2.515-0.416c0.743,0.19,1.378,0.532,1.902,1.028c0.524,0.496,0.969,1.145,1.333,1.946
				c0.365,0.802,0.635,1.596,0.81,2.383c0.175,0.787,0.291,1.559,0.35,2.317c0.028,0.379-0.124,0.671-0.459,0.875
				c-0.335,0.204-0.678,0.255-1.027,0.153c-0.351-0.102-0.554-0.342-0.612-0.721c-0.321-1.953-0.656-3.265-1.006-3.936
				c-0.233-0.466-0.524-0.859-0.875-1.181c-0.35-0.32-0.765-0.488-1.246-0.503c-0.48-0.014-0.926,0.212-1.333,0.678
				c-0.351,0.409-0.62,0.94-0.81,1.596c-0.189,0.656-0.306,1.196-0.35,1.618c-0.043,0.423-0.059,1.093-0.043,2.012
				c0.014,0.918,0.021,1.45,0.021,1.596c-0.146,4.723-0.219,7.769-0.219,9.139c0,0.379-0.008,0.999-0.021,1.858
				c-0.016,0.86-0.023,1.618-0.023,2.273c0,0.656,0.028,1.276,0.087,1.858c0.146,2.595,0.686,4.373,1.619,5.335
				c1.049,1.079,1.952,1.501,2.711,1.268c0.932-0.32,1.632-1.049,2.099-2.186c1.021-2.39,1.253-4.037,0.699-4.941
				c-0.263-0.438-0.263-0.853,0-1.246c0.263-0.394,0.605-0.59,1.028-0.59C196.341,166.808,196.699,167.012,196.99,167.42z"/>
		</g>
		<g>
			<path style="fill:#DFF2D3;" d="M107.413,100.596c-0.645,0.645-1.298,0.645-1.963,0c-0.664-0.643-0.694-1.288-0.09-1.933
				c0.321-0.362,0.906-1.006,1.752-1.933c0.846-0.926,1.488-1.65,1.933-2.174c0.483-0.523,1.036-0.634,1.661-0.333
				c0.624,0.302,0.977,0.776,1.057,1.42c0.161,3.302,0.221,5.829,0.182,7.581c-0.041,1.752-0.142,4.279-0.303,7.581
				c-0.16,3.303-0.24,5.82-0.24,7.551c-0.041,3.182,0.141,6.847,0.543,10.994c0.242,2.619,0.383,4.571,0.423,5.86
				c0,0.161,0,0.362,0,0.604s0,0.443,0,0.604c0,0.162-0.011,0.353-0.03,0.574c-0.021,0.222-0.041,0.423-0.061,0.604
				c-0.021,0.182-0.081,0.363-0.182,0.544c-0.101,0.181-0.211,0.353-0.332,0.513c-0.361,0.483-0.886,0.634-1.57,0.453
				c-0.685-0.181-1.067-0.574-1.147-1.178c0-0.08-0.021-0.161-0.061-0.242c-0.161-0.523-0.12-0.966,0.12-1.329
				c-0.08-0.765-0.12-1.389-0.12-1.872c-0.04-0.684-0.101-1.67-0.181-2.96c-0.121-1.167-0.283-2.879-0.484-5.135
				c-0.241-3.221-0.301-6.645-0.181-10.269c0.04-0.644,0.13-3.051,0.272-7.219c0.141-4.168,0.211-7.359,0.211-9.575L107.413,100.596
				z"/>
			<path style="fill:#DFF2D3;" d="M125.837,139.016c-2.577-0.322-4.47-1.813-5.678-4.47c-0.686-1.651-1.178-3.574-1.48-5.769
				c-0.302-2.194-0.422-4.238-0.362-6.131c0.061-1.893,0.091-3.886,0.091-5.98c0.121-6.282,1.088-11.478,2.899-15.585
				c0.927-2.214,2.054-3.806,3.383-4.773c0.161-0.442,0.483-0.764,0.967-0.966c0.806-0.242,1.54-0.382,2.204-0.423
				c0.665-0.04,1.299,0.121,1.903,0.483c0.604,0.362,1.127,0.765,1.571,1.208c0.442,0.444,0.865,1.027,1.268,1.752
				c0.402,0.725,0.756,1.41,1.058,2.054c0.302,0.645,0.573,1.38,0.815,2.205c0.242,0.826,0.432,1.54,0.574,2.144
				c0.141,0.604,0.291,1.229,0.453,1.873c0.764,4.31,1.087,9.061,0.967,14.256c0,0.081-0.012,0.675-0.031,1.782
				c-0.021,1.108-0.04,1.793-0.061,2.054c-0.02,0.263-0.051,0.867-0.09,1.813c-0.041,0.946-0.111,1.651-0.211,2.114
				c-0.102,0.463-0.223,1.067-0.363,1.812c-0.142,0.746-0.322,1.4-0.543,1.963c-0.223,0.564-0.475,1.108-0.756,1.631
				c-0.846,1.571-2.074,2.85-3.685,3.836C129.119,138.885,127.489,139.258,125.837,139.016z M122.274,109.174
				c-0.444,2.899-0.625,7.29-0.544,13.169c0.039,3.786,0.281,6.605,0.725,8.457c0.725,3.223,1.853,4.874,3.383,4.954
				c1.934,0.162,3.463-0.453,4.592-1.842c1.127-1.39,1.852-3.111,2.174-5.165c0.726-4.752,0.846-9.987,0.363-15.706
				c-0.082-0.764-0.162-1.469-0.242-2.114c-0.081-0.644-0.211-1.631-0.393-2.96c-0.182-1.329-0.413-2.486-0.694-3.473
				c-0.282-0.986-0.614-1.994-0.997-3.021c-0.383-1.027-0.866-1.812-1.449-2.356c-0.584-0.543-1.219-0.775-1.903-0.695
				c-1.007,0.282-1.933,1.329-2.778,3.142C123.421,103.979,122.675,106.516,122.274,109.174z"/>
			<path style="fill:#DFF2D3;" d="M149.456,139.016c-2.577-0.322-4.47-1.813-5.678-4.47c-0.686-1.651-1.178-3.574-1.48-5.769
				c-0.302-2.194-0.422-4.238-0.362-6.131c0.061-1.893,0.091-3.886,0.091-5.98c0.121-6.282,1.088-11.478,2.899-15.585
				c0.927-2.214,2.054-3.806,3.383-4.773c0.161-0.442,0.483-0.764,0.967-0.966c0.806-0.242,1.54-0.382,2.204-0.423
				c0.665-0.04,1.299,0.121,1.903,0.483c0.604,0.362,1.127,0.765,1.571,1.208c0.442,0.444,0.865,1.027,1.268,1.752
				c0.402,0.725,0.756,1.41,1.058,2.054c0.302,0.645,0.573,1.38,0.816,2.205c0.242,0.826,0.432,1.54,0.574,2.144
				c0.141,0.604,0.291,1.229,0.453,1.873c0.764,4.31,1.087,9.061,0.967,14.256c0,0.081-0.012,0.675-0.031,1.782
				c-0.021,1.108-0.04,1.793-0.061,2.054c-0.02,0.263-0.051,0.867-0.09,1.813c-0.041,0.946-0.111,1.651-0.211,2.114
				c-0.102,0.463-0.223,1.067-0.363,1.812c-0.142,0.746-0.322,1.4-0.543,1.963c-0.223,0.564-0.475,1.108-0.756,1.631
				c-0.846,1.571-2.074,2.85-3.684,3.836C152.738,138.885,151.108,139.258,149.456,139.016z M145.893,109.174
				c-0.444,2.899-0.625,7.29-0.544,13.169c0.039,3.786,0.281,6.605,0.725,8.457c0.725,3.223,1.852,4.874,3.383,4.954
				c1.934,0.162,3.463-0.453,4.592-1.842c1.127-1.39,1.852-3.111,2.174-5.165c0.726-4.752,0.846-9.987,0.363-15.706
				c-0.082-0.764-0.162-1.469-0.242-2.114c-0.081-0.644-0.211-1.631-0.393-2.96c-0.182-1.329-0.413-2.486-0.694-3.473
				c-0.282-0.986-0.614-1.994-0.997-3.021c-0.383-1.027-0.866-1.812-1.449-2.356c-0.584-0.543-1.219-0.775-1.903-0.695
				c-1.007,0.282-1.933,1.329-2.778,3.142C147.04,103.979,146.294,106.516,145.893,109.174z"/>
			<path style="fill:#DFF2D3;" d="M171.023,105.49c-1.008,0.766-1.984,0.927-2.931,0.483c-0.946-0.443-1.622-1.269-2.023-2.477
				c-0.403-1.167-0.554-2.455-0.453-3.866c0.101-1.409,0.453-2.658,1.058-3.746c0.321-0.604,0.805-0.825,1.449-0.664
				c1.49-0.765,2.818-0.685,3.986,0.241c0.242-0.04,1.199-0.211,2.87-0.513c1.671-0.302,2.97-0.433,3.896-0.393
				c0.401,0.04,0.755,0.202,1.058,0.483c0.301,0.282,0.452,0.645,0.452,1.087c0,1.048-0.151,2.135-0.452,3.262
				c-0.303,1.128-0.695,2.396-1.179,3.806c-0.483,1.41-0.825,2.477-1.026,3.202c-0.162,0.725-0.947,4.47-2.356,11.236
				c-0.483,2.215-1.208,6.424-2.175,12.625c-0.443,2.658-0.906,4.712-1.389,6.162l-0.303,1.148c0,0.362-0.081,0.685-0.242,0.966
				c-0.322,0.564-0.825,0.867-1.51,0.906c-0.564,0.04-0.986-0.161-1.268-0.604c-0.283-0.443-0.384-0.926-0.303-1.45
				c0.039-0.322,0.16-0.785,0.362-1.389c0.201-0.604,0.321-0.986,0.362-1.148c0.443-1.57,0.865-3.624,1.27-6.162
				c0.725-4.833,1.428-8.819,2.113-11.961c0.16-0.885,0.372-2.023,0.635-3.413c0.262-1.389,0.514-2.627,0.755-3.715
				c0.241-1.087,0.522-2.214,0.846-3.383c0.161-0.644,0.594-1.953,1.299-3.927c0.704-1.973,1.138-3.503,1.299-4.591
				c-0.806,0.081-2.015,0.262-3.624,0.543C173.942,101.221,173.115,103.637,171.023,105.49z M169.029,102.952
				c0.039,0.081,0.061,0.142,0.061,0.181c1.006-0.846,1.489-2.013,1.449-3.503c0-0.242-0.02-0.563-0.061-0.967
				c-0.564,0-1.127-0.039-1.691-0.121c-0.201,0.725-0.262,1.611-0.181,2.658C168.646,102.007,168.786,102.59,169.029,102.952z
				 M179.419,127.115c1.65-0.242,2.869,0.543,3.654,2.356c0.785,1.812,0.895,3.775,0.332,5.89c-0.564,2.114-1.652,3.413-3.262,3.896
				c-1.691,0.483-2.99,0.071-3.896-1.239c-0.906-1.308-1.359-2.849-1.359-4.621c0-0.644,0.04-1.299,0.121-1.963
				c0.08-0.665,0.23-1.399,0.453-2.205c0.221-0.805,0.583-1.45,1.088-1.933c0.502-0.483,1.117-0.684,1.842-0.604
				C178.794,126.693,179.136,126.834,179.419,127.115z M179.298,136.176c0.644-0.442,1.047-1.59,1.208-3.443
				c0.12-1.731-0.161-2.577-0.846-2.537c-0.081,0.04-0.181,0.082-0.302,0.121c-0.323,0.121-0.665,0.142-1.027,0.06
				c-0.041,0.121-0.102,0.263-0.182,0.423c-0.201,0.967-0.281,1.833-0.241,2.598c0,1.531,0.262,2.477,0.785,2.839
				C178.895,136.318,179.096,136.298,179.298,136.176z"/>
		</g>
		<g>
			<path style="fill:#03252B;" d="M81.081,100.938l-10.217-7.725l1.867-2.469c0.672-0.889,1.41-1.349,2.211-1.379
				c0.803-0.03,1.672,0.31,2.611,1.019c0.461,0.349,0.828,0.697,1.102,1.043c0.273,0.346,0.461,0.683,0.563,1.009
				c0.102,0.327,0.125,0.666,0.07,1.017c-0.055,0.352-0.165,0.693-0.33,1.026c-0.166,0.333-0.391,0.692-0.676,1.077l4.37,3.305
				L81.081,100.938z M76.827,94.448c0.083-0.11,0.15-0.212,0.201-0.308c0.051-0.095,0.093-0.181,0.124-0.258
				c0.032-0.077,0.044-0.158,0.035-0.241c-0.009-0.084-0.017-0.154-0.026-0.212c-0.01-0.058-0.045-0.127-0.105-0.209
				c-0.061-0.082-0.111-0.146-0.152-0.195c-0.04-0.049-0.113-0.117-0.219-0.206c-0.105-0.088-0.191-0.158-0.258-0.208
				c-0.065-0.05-0.168-0.128-0.309-0.234c-0.038-0.028-0.066-0.05-0.086-0.064c-0.146-0.111-0.26-0.195-0.336-0.25
				c-0.078-0.055-0.18-0.122-0.305-0.199c-0.126-0.077-0.228-0.126-0.305-0.146c-0.078-0.02-0.172-0.035-0.283-0.044
				c-0.111-0.01-0.21,0.006-0.295,0.048c-0.086,0.042-0.182,0.106-0.287,0.19c-0.105,0.084-0.209,0.194-0.313,0.33L76.827,94.448z"
				/>
			<path style="fill:#03252B;" d="M83.458,90.275l-5.713-5.669l1.825-1.838l5.656,5.614c0.323,0.321,0.56,0.552,0.71,0.694
				c0.149,0.142,0.336,0.311,0.561,0.506c0.223,0.196,0.395,0.318,0.512,0.368c0.117,0.05,0.254,0.094,0.41,0.132
				c0.156,0.038,0.297,0.025,0.42-0.04c0.124-0.064,0.253-0.164,0.387-0.298c0.134-0.134,0.232-0.264,0.295-0.388
				c0.063-0.125,0.076-0.264,0.039-0.418c-0.037-0.154-0.082-0.29-0.133-0.407c-0.051-0.117-0.172-0.286-0.366-0.504
				c-0.194-0.219-0.36-0.401-0.5-0.547c-0.14-0.145-0.37-0.376-0.689-0.694c-0.013-0.013-0.023-0.023-0.03-0.03l-5.656-5.615
				l1.824-1.838l5.713,5.67c0.289,0.287,0.543,0.557,0.762,0.807c0.219,0.251,0.432,0.525,0.638,0.823
				c0.206,0.298,0.365,0.584,0.479,0.856c0.113,0.273,0.191,0.564,0.234,0.875c0.044,0.31,0.031,0.614-0.036,0.911
				c-0.068,0.297-0.197,0.609-0.387,0.935c-0.19,0.326-0.445,0.65-0.767,0.974c-0.321,0.323-0.644,0.581-0.968,0.773
				c-0.325,0.192-0.635,0.323-0.93,0.391c-0.295,0.068-0.598,0.082-0.908,0.041c-0.311-0.04-0.603-0.117-0.877-0.228
				c-0.273-0.111-0.561-0.268-0.861-0.47c-0.301-0.202-0.578-0.412-0.83-0.628C84.019,90.814,83.747,90.562,83.458,90.275z"/>
			<path style="fill:#03252B;" d="M94.806,86l-7.75-10.196l2.242-1.705c0.51-0.388,0.995-0.68,1.455-0.878
				c0.461-0.198,0.914-0.304,1.361-0.319c0.447-0.016,0.88,0.094,1.297,0.329c0.416,0.234,0.81,0.595,1.18,1.083
				c0.161,0.211,0.297,0.406,0.408,0.583c0.111,0.178,0.221,0.395,0.328,0.649c0.107,0.255,0.176,0.5,0.207,0.736
				c0.03,0.236,0.018,0.501-0.04,0.794c-0.058,0.294-0.166,0.585-0.327,0.875c2.088,1.476,3.869,2.714,5.344,3.714l-2.136,1.623
				l-4.737-3.809l-0.34,0.258l3.57,4.696L94.806,86z M92.343,78.479l0.589-0.448c0.159-0.121,0.255-0.277,0.287-0.469
				c0.033-0.192,0.013-0.388-0.06-0.589c-0.072-0.201-0.15-0.378-0.232-0.53c-0.082-0.151-0.17-0.288-0.262-0.409
				c-0.092-0.121-0.195-0.239-0.31-0.354c-0.114-0.115-0.253-0.235-0.415-0.359c-0.163-0.123-0.332-0.197-0.509-0.222
				c-0.177-0.023-0.336,0.019-0.479,0.128l-0.686,0.521L92.343,78.479z"/>
			<path style="fill:#03252B;" d="M103.023,80.103l-6.443-11.07l4.617-2.688l0.896,1.538l-2.38,1.385l1.754,3.014l1.686-0.981
				l0.916,1.574l-1.685,0.981l1.983,3.407l2.38-1.385l0.895,1.538L103.023,80.103z"/>
			<path style="fill:#03252B;" d="M114.47,74.174l-1.59-13.007l2.165-0.752l6.812,11.192l-2.412,0.838l-1.398-2.415l-1.579,0.549
				l0.428,2.751L114.47,74.174z M116.113,69.015l1.25-0.434l-2.172-4.277L116.113,69.015z"/>
			<path style="fill:#03252B;" d="M124.702,70.869l-2.511-12.567l1.828-0.365l4.069,6.022l-1.312-6.573l2.107-0.421l2.51,12.567
				l-1.758,0.351l-4.143-6.421l1.393,6.971L124.702,70.869z"/>
			<path style="fill:#03252B;" d="M134.99,69.073l-0.754-12.786l2.67-0.158c0.854-0.05,1.56-0.015,2.12,0.107
				c0.562,0.121,1.009,0.349,1.345,0.683c0.336,0.334,0.578,0.744,0.729,1.229c0.15,0.485,0.247,1.109,0.293,1.871l0.246,4.191
				c0.027,0.455,0.037,0.852,0.028,1.192c-0.009,0.34-0.042,0.675-0.101,1.004c-0.06,0.329-0.15,0.61-0.271,0.843
				c-0.122,0.233-0.283,0.453-0.485,0.66c-0.202,0.206-0.449,0.376-0.743,0.507c-0.295,0.131-0.642,0.24-1.043,0.325
				c-0.401,0.086-0.865,0.144-1.391,0.175L134.99,69.073z M137.568,67.103c0.246-0.015,0.441-0.03,0.582-0.045
				c0.142-0.016,0.283-0.042,0.424-0.079c0.14-0.037,0.242-0.082,0.305-0.136c0.063-0.054,0.121-0.129,0.172-0.228
				c0.052-0.098,0.082-0.212,0.09-0.344c0.01-0.131,0.008-0.294-0.003-0.488l-0.406-6.883c-0.024-0.422-0.167-0.694-0.427-0.816
				c-0.259-0.122-0.684-0.169-1.276-0.138L137.568,67.103z"/>
			<path style="fill:#03252B;" d="M150.568,69.054l1.87-12.678l1.845,0.272l1.802,7.042l0.979-6.631l2.126,0.314l-1.871,12.678
				l-1.773-0.262l-1.736-7.442l-1.037,7.033L150.568,69.054z"/>
			<path style="fill:#03252B;" d="M160.18,70.638l6.238-11.524l2.2,0.641l-0.93,13.069l-2.453-0.714l0.26-2.777l-1.606-0.467
				l-1.244,2.491L160.18,70.638z M164.507,67.384l1.271,0.37l0.707-4.745L164.507,67.384z"/>
			<path style="fill:#03252B;" d="M171.238,74.263l4.273-9.998l-1.727-0.738l0.761-1.78l5.804,2.481l-0.762,1.78l-1.693-0.725
				l-4.274,9.998L171.238,74.263z"/>
			<path style="fill:#03252B;" d="M180.357,73.196l4.102-6.925l2.229,1.32l-4.061,6.857c-0.232,0.392-0.398,0.678-0.5,0.857
				c-0.102,0.18-0.219,0.402-0.354,0.667c-0.135,0.265-0.213,0.46-0.232,0.586c-0.02,0.126-0.028,0.27-0.027,0.43
				c0.002,0.161,0.049,0.293,0.141,0.397c0.094,0.104,0.221,0.205,0.385,0.302c0.162,0.097,0.313,0.161,0.449,0.191
				c0.135,0.031,0.273,0.01,0.414-0.064c0.141-0.074,0.261-0.15,0.362-0.228c0.101-0.078,0.234-0.237,0.399-0.479
				c0.164-0.242,0.301-0.448,0.408-0.619c0.105-0.171,0.274-0.451,0.504-0.838c0.01-0.016,0.018-0.028,0.021-0.037l4.062-6.857
				l2.229,1.32l-4.101,6.925c-0.208,0.351-0.407,0.664-0.597,0.937c-0.189,0.273-0.403,0.546-0.642,0.819
				c-0.238,0.272-0.477,0.497-0.713,0.673c-0.238,0.177-0.501,0.324-0.791,0.442c-0.291,0.118-0.588,0.18-0.893,0.187
				c-0.305,0.007-0.639-0.042-1.001-0.146c-0.362-0.105-0.739-0.273-1.132-0.505c-0.392-0.232-0.721-0.482-0.986-0.75
				c-0.266-0.268-0.469-0.536-0.607-0.806c-0.138-0.269-0.226-0.56-0.262-0.87c-0.036-0.311-0.034-0.613,0.007-0.906
				c0.041-0.292,0.123-0.61,0.244-0.951c0.123-0.341,0.258-0.661,0.407-0.959C179.971,73.871,180.15,73.547,180.357,73.196z"/>
			<path style="fill:#03252B;" d="M187.276,83.157l7.997-10.005l2.201,1.759c0.5,0.4,0.902,0.799,1.207,1.197
				c0.304,0.398,0.518,0.812,0.643,1.242c0.123,0.43,0.122,0.876-0.004,1.337c-0.125,0.462-0.379,0.931-0.762,1.409
				c-0.166,0.208-0.32,0.387-0.466,0.538c-0.145,0.151-0.329,0.31-0.55,0.477c-0.221,0.167-0.441,0.293-0.664,0.38
				c-0.221,0.088-0.48,0.139-0.779,0.155c-0.299,0.017-0.608-0.018-0.928-0.104c-0.922,2.385-1.688,4.414-2.299,6.089l-2.095-1.675
				l2.538-5.524l-0.334-0.267l-3.683,4.608L187.276,83.157z M193.968,78.932l0.578,0.462c0.156,0.125,0.33,0.179,0.525,0.164
				c0.193-0.015,0.379-0.082,0.557-0.202c0.178-0.119,0.33-0.237,0.457-0.354c0.127-0.117,0.237-0.235,0.332-0.354
				c0.095-0.119,0.184-0.248,0.269-0.387c0.084-0.14,0.166-0.303,0.246-0.491c0.081-0.188,0.11-0.37,0.091-0.547
				c-0.02-0.177-0.1-0.321-0.24-0.434l-0.673-0.538L193.968,78.932z"/>
			<path style="fill:#03252B;" d="M194.523,89.142l11.168-6.856l1.584,1.655l-7.346,10.851l-1.766-1.846l1.615-2.274l-1.156-1.208
				l-2.324,1.534L194.523,89.142z M199.897,88.49l0.915,0.956l2.986-3.754L199.897,88.49z"/>
			<path style="fill:#03252B;" d="M201.769,97.117l10.249-7.683l1.554,2.073l-8.826,6.615l1.528,2.039l-1.423,1.067L201.769,97.117z
				"/>
		</g>
		<g>
			<g>
				<path style="fill:#03252B;" d="M73.851,200.123l9.665-8.404l2.031,2.336c0.732,0.841,1.029,1.657,0.894,2.448
					c-0.137,0.791-0.648,1.572-1.535,2.344c-0.438,0.38-0.854,0.668-1.249,0.864c-0.396,0.196-0.763,0.31-1.103,0.342
					c-0.341,0.032-0.678-0.016-1.01-0.141c-0.332-0.126-0.645-0.304-0.936-0.535c-0.292-0.23-0.597-0.525-0.914-0.883l-4.135,3.595
					L73.851,200.123z M81.079,197.299c0.09,0.104,0.176,0.191,0.259,0.26c0.083,0.07,0.158,0.128,0.228,0.175
					c0.068,0.047,0.145,0.075,0.229,0.084c0.083,0.009,0.154,0.015,0.213,0.018c0.059,0.002,0.135-0.018,0.226-0.06
					c0.092-0.042,0.166-0.078,0.222-0.108c0.056-0.03,0.138-0.087,0.247-0.172c0.107-0.085,0.193-0.155,0.256-0.209
					c0.063-0.055,0.16-0.139,0.293-0.254c0.035-0.031,0.063-0.055,0.08-0.07c0.141-0.121,0.244-0.214,0.314-0.278
					c0.07-0.064,0.156-0.15,0.258-0.257c0.101-0.107,0.17-0.196,0.205-0.268c0.035-0.071,0.069-0.161,0.102-0.268
					c0.033-0.107,0.037-0.206,0.014-0.299c-0.023-0.092-0.066-0.199-0.126-0.319c-0.062-0.12-0.147-0.245-0.259-0.374
					L81.079,197.299z"/>
				<path style="fill:#03252B;" d="M84.144,204.38l5.352-6.012l1.935,1.722l-5.299,5.953c-0.303,0.34-0.521,0.589-0.654,0.747
					c-0.134,0.157-0.292,0.353-0.476,0.587c-0.183,0.234-0.295,0.411-0.339,0.531c-0.044,0.12-0.08,0.259-0.109,0.417
					c-0.029,0.158-0.009,0.297,0.062,0.418c0.071,0.12,0.178,0.243,0.319,0.37c0.142,0.126,0.276,0.217,0.404,0.274
					c0.128,0.056,0.267,0.062,0.419,0.016c0.152-0.046,0.285-0.097,0.399-0.154c0.114-0.057,0.275-0.188,0.483-0.394
					c0.209-0.205,0.381-0.382,0.52-0.529c0.137-0.147,0.355-0.389,0.655-0.726c0.013-0.014,0.022-0.024,0.028-0.032l5.299-5.953
					l1.934,1.722l-5.35,6.012c-0.271,0.305-0.526,0.573-0.765,0.806c-0.239,0.232-0.501,0.46-0.787,0.681
					c-0.286,0.221-0.563,0.396-0.829,0.524c-0.266,0.128-0.553,0.222-0.86,0.282c-0.308,0.06-0.61,0.064-0.911,0.013
					c-0.301-0.051-0.619-0.163-0.955-0.335s-0.674-0.409-1.014-0.712c-0.34-0.303-0.615-0.611-0.825-0.925
					c-0.21-0.314-0.356-0.616-0.44-0.907c-0.084-0.291-0.115-0.592-0.091-0.905c0.024-0.312,0.084-0.608,0.181-0.887
					c0.096-0.279,0.236-0.575,0.422-0.887c0.186-0.312,0.379-0.599,0.582-0.863C83.636,204.969,83.873,204.685,84.144,204.38z"/>
				<path style="fill:#03252B;" d="M90.445,215.88l7.174-10.61l2.334,1.578c0.531,0.359,0.964,0.724,1.299,1.097
					c0.335,0.373,0.582,0.768,0.739,1.187c0.157,0.418,0.192,0.863,0.104,1.333c-0.09,0.47-0.305,0.958-0.647,1.465
					c-0.149,0.22-0.29,0.411-0.423,0.573c-0.133,0.163-0.303,0.335-0.51,0.519c-0.207,0.184-0.417,0.327-0.631,0.432
					c-0.214,0.105-0.469,0.177-0.766,0.217c-0.296,0.04-0.607,0.03-0.933-0.03c-0.729,2.451-1.331,4.535-1.806,6.253l-2.222-1.503
					l2.089-5.708l-0.354-0.239l-3.304,4.887L90.445,215.88z M96.779,211.135l0.613,0.415c0.166,0.112,0.344,0.152,0.536,0.122
					c0.192-0.03,0.372-0.112,0.54-0.245c0.167-0.133,0.309-0.263,0.426-0.39c0.117-0.127,0.219-0.253,0.305-0.379
					c0.084-0.126,0.163-0.261,0.236-0.407c0.072-0.146,0.141-0.315,0.206-0.509c0.065-0.193,0.081-0.377,0.048-0.552
					c-0.035-0.174-0.126-0.312-0.275-0.413l-0.713-0.482L96.779,211.135z"/>
				<path style="fill:#03252B;" d="M99.976,221.924l5.883-11.378l4.746,2.455l-0.816,1.58l-2.446-1.265l-1.602,3.097l1.732,0.896
					l-0.837,1.618l-1.732-0.895l-1.811,3.502l2.447,1.265l-0.817,1.58L99.976,221.924z"/>
				<path style="fill:#03252B;" d="M113.431,228l6.346-11.465l2.193,0.661l-1.051,13.061l-2.447-0.737l0.287-2.775l-1.602-0.482
					l-1.268,2.479L113.431,228z M117.788,224.786l1.267,0.382l0.751-4.738L117.788,224.786z"/>
				<path style="fill:#03252B;" d="M125.06,231.179l2.064-12.648l1.84,0.3l1.694,7.068l1.08-6.615l2.121,0.346l-2.065,12.648
					l-1.77-0.289l-1.621-7.467l-1.145,7.016L125.06,231.179z"/>
				<path style="fill:#03252B;" d="M136.693,232.747l0.395-12.802l2.674,0.083c0.854,0.026,1.555,0.125,2.102,0.296
					c0.549,0.171,0.975,0.439,1.279,0.801c0.304,0.363,0.509,0.793,0.615,1.29c0.105,0.497,0.146,1.127,0.123,1.891l-0.131,4.196
					c-0.014,0.455-0.04,0.852-0.078,1.19c-0.039,0.338-0.104,0.669-0.191,0.991c-0.088,0.322-0.203,0.594-0.346,0.816
					c-0.143,0.221-0.322,0.425-0.542,0.613c-0.22,0.188-0.481,0.334-0.786,0.438c-0.305,0.105-0.66,0.181-1.068,0.23
					c-0.406,0.049-0.873,0.065-1.4,0.049L136.693,232.747z M139.437,231.017c0.246,0.007,0.441,0.01,0.583,0.007
					c0.143-0.003,0.286-0.016,0.429-0.04c0.143-0.024,0.248-0.06,0.316-0.108c0.068-0.048,0.132-0.118,0.191-0.211
					c0.061-0.093,0.1-0.204,0.121-0.334c0.021-0.13,0.033-0.292,0.039-0.487l0.213-6.892c0.014-0.422-0.104-0.706-0.35-0.851
					c-0.247-0.145-0.667-0.23-1.259-0.253L139.437,231.017z"/>
				<path style="fill:#03252B;" d="M154.195,232.246l-2.102-12.642l1.838-0.306l3.873,6.151l-1.1-6.612l2.119-0.352l2.102,12.642
					l-1.768,0.294l-3.932-6.552l1.166,7.012L154.195,232.246z"/>
				<path style="fill:#03252B;" d="M165.06,230.193l-1.082-13.06l2.191-0.667l6.372,11.449l-2.444,0.744l-1.301-2.467l-1.6,0.487
					l0.32,2.766L165.06,230.193z M166.902,225.102l1.267-0.385l-2.004-4.359L166.902,225.102z"/>
				<path style="fill:#03252B;" d="M177.176,226.044l-4.343-9.968l-1.723,0.751l-0.772-1.774l5.786-2.521l0.773,1.774l-1.689,0.736
					l4.342,9.968L177.176,226.044z"/>
				<path style="fill:#03252B;" d="M182.528,218.317l-4.107-6.921l2.228-1.322l4.066,6.855c0.232,0.392,0.403,0.675,0.513,0.85
					c0.109,0.175,0.248,0.385,0.416,0.63c0.167,0.246,0.301,0.407,0.402,0.485c0.102,0.078,0.223,0.154,0.365,0.23
					c0.141,0.076,0.279,0.098,0.416,0.067c0.136-0.031,0.285-0.095,0.449-0.192c0.162-0.097,0.291-0.197,0.383-0.302
					c0.092-0.104,0.141-0.236,0.143-0.395c0.002-0.158-0.006-0.301-0.025-0.427c-0.02-0.126-0.097-0.319-0.229-0.58
					c-0.133-0.261-0.248-0.479-0.348-0.655c-0.099-0.176-0.264-0.457-0.493-0.845c-0.009-0.017-0.017-0.029-0.021-0.037
					l-4.066-6.854l2.227-1.322l4.107,6.922c0.208,0.351,0.387,0.675,0.536,0.973c0.148,0.298,0.285,0.617,0.41,0.956
					c0.124,0.34,0.207,0.656,0.248,0.949c0.041,0.293,0.044,0.595,0.008,0.906c-0.036,0.311-0.125,0.602-0.265,0.872
					c-0.14,0.271-0.343,0.54-0.608,0.808c-0.266,0.268-0.595,0.518-0.986,0.751c-0.392,0.232-0.768,0.401-1.131,0.506
					c-0.363,0.105-0.695,0.153-0.998,0.145c-0.303-0.008-0.6-0.071-0.89-0.188c-0.29-0.118-0.554-0.265-0.791-0.441
					c-0.237-0.177-0.476-0.4-0.716-0.671c-0.241-0.271-0.457-0.543-0.646-0.816C182.935,218.98,182.736,218.668,182.528,218.317z"/>
				<path style="fill:#03252B;" d="M195.412,215.787l-7.941-10.05l2.211-1.747c0.502-0.397,0.982-0.699,1.438-0.905
					c0.456-0.207,0.908-0.321,1.354-0.345c0.447-0.023,0.881,0.078,1.303,0.305c0.42,0.227,0.82,0.58,1.199,1.06
					c0.166,0.208,0.305,0.401,0.42,0.576c0.114,0.176,0.227,0.39,0.34,0.643c0.111,0.253,0.186,0.497,0.221,0.733
					c0.035,0.235,0.026,0.501-0.025,0.795c-0.051,0.294-0.154,0.588-0.311,0.88c2.115,1.437,3.918,2.642,5.412,3.614l-2.105,1.663
					l-4.807-3.72l-0.335,0.265l3.657,4.629L195.412,215.787z M192.808,208.314l0.581-0.459c0.156-0.124,0.249-0.281,0.278-0.474
					c0.029-0.192,0.006-0.389-0.07-0.588c-0.076-0.2-0.157-0.375-0.242-0.525c-0.086-0.15-0.176-0.285-0.27-0.404
					c-0.094-0.119-0.199-0.235-0.316-0.349c-0.117-0.113-0.258-0.23-0.422-0.351c-0.165-0.121-0.336-0.191-0.513-0.212
					c-0.177-0.021-0.335,0.025-0.477,0.137l-0.675,0.534L192.808,208.314z"/>
				<path style="fill:#03252B;" d="M203.638,209.004l-7.21-10.942l1.604-1.637l11.08,6.994l-1.788,1.825l-2.325-1.542l-1.171,1.194
					l1.608,2.273L203.638,209.004z M202.814,203.654l0.927-0.945l-3.849-2.864L202.814,203.654z"/>
				<path style="fill:#03252B;" d="M211.745,200.258l-10.111-7.861l1.59-2.045l8.707,6.77l1.564-2.011l1.404,1.092L211.745,200.258z
					"/>
			</g>
		</g>
		<g>
			<g>
				
					<linearGradient id="SVGID_00000168106981809444320060000005964752128349441160_" gradientUnits="userSpaceOnUse" x1="125.9526" y1="209.1426" x2="125.9526" y2="172.1977">
					<stop  offset="0" style="stop-color:#7ABD39"/>
					<stop  offset="0.0519" style="stop-color:#71B937"/>
					<stop  offset="0.3613" style="stop-color:#41A12C"/>
					<stop  offset="0.6336" style="stop-color:#1D9025"/>
					<stop  offset="0.8557" style="stop-color:#088620"/>
					<stop  offset="1" style="stop-color:#00821E"/>
				</linearGradient>
				<path style="fill:url(#SVGID_00000168106981809444320060000005964752128349441160_);" d="M110.652,184.873
					c0.032-0.004,0.071-0.004,0.104-0.008c0.453,0.253,0.786,0.4,0.786,0.4c0.582,0.617,1.196,1.212,1.835,1.795
					c0.082,0.071,0.164,0.142,0.247,0.218c1.383,1.241,2.889,2.407,4.467,3.497c8.206,7.479,19.742,11.599,23.161,12.709
					c-3.332,1.86-9.829,4.8-15.242,3.107C116.715,203.684,114.229,190.514,110.652,184.873z"/>
				
					<linearGradient id="SVGID_00000039132729934200180080000004636900096059730336_" gradientUnits="userSpaceOnUse" x1="127.1981" y1="209.1427" x2="127.1981" y2="172.1978">
					<stop  offset="0" style="stop-color:#7ABD39"/>
					<stop  offset="0.0519" style="stop-color:#71B937"/>
					<stop  offset="0.3613" style="stop-color:#41A12C"/>
					<stop  offset="0.6336" style="stop-color:#1D9025"/>
					<stop  offset="0.8557" style="stop-color:#088620"/>
					<stop  offset="1" style="stop-color:#00821E"/>
				</linearGradient>
				<path style="fill:url(#SVGID_00000039132729934200180080000004636900096059730336_);" d="M110.756,184.865
					c6.695-0.332,18.63-5.346,26.511,0.177c6.174,4.32,6.514,12.111,6.342,15.473c-14.191-2.709-24.611-9.196-25.577-9.812
					c-0.033-0.018-0.055-0.034-0.068-0.042c-0.007-0.004-0.007-0.004-0.007-0.004c-1.82-1.286-3.235-2.446-4.333-3.38
					c-0.083-0.076-0.165-0.147-0.247-0.218C112.058,185.923,111.242,185.136,110.756,184.865z"/>
			</g>
			<g>
				
					<linearGradient id="SVGID_00000125566313642989041170000016190575545941210250_" gradientUnits="userSpaceOnUse" x1="163.4809" y1="209.1426" x2="163.4809" y2="172.1978">
					<stop  offset="0" style="stop-color:#7ABD39"/>
					<stop  offset="0.0519" style="stop-color:#71B937"/>
					<stop  offset="0.3613" style="stop-color:#41A12C"/>
					<stop  offset="0.6336" style="stop-color:#1D9025"/>
					<stop  offset="0.8557" style="stop-color:#088620"/>
					<stop  offset="1" style="stop-color:#00821E"/>
				</linearGradient>
				<path style="fill:url(#SVGID_00000125566313642989041170000016190575545941210250_);" d="M177.341,183.313
					c-0.031-0.001-0.069,0.003-0.1,0.002c-0.412,0.284-0.719,0.457-0.719,0.457c-0.503,0.646-1.039,1.275-1.6,1.894
					c-0.072,0.076-0.145,0.151-0.218,0.232c-1.216,1.32-2.557,2.579-3.975,3.77c-7.206,7.941-17.921,12.958-21.107,14.337
					c3.374,1.483,9.889,3.716,14.938,1.594C173.232,201.954,174.418,189.064,177.341,183.313z"/>
				
					<linearGradient id="SVGID_00000019657209822572044290000000809984925820862890_" gradientUnits="userSpaceOnUse" x1="162.0378" y1="209.1426" x2="162.0378" y2="172.1978">
					<stop  offset="0" style="stop-color:#7ABD39"/>
					<stop  offset="0.0519" style="stop-color:#71B937"/>
					<stop  offset="0.3613" style="stop-color:#41A12C"/>
					<stop  offset="0.6336" style="stop-color:#1D9025"/>
					<stop  offset="0.8557" style="stop-color:#088620"/>
					<stop  offset="1" style="stop-color:#00821E"/>
				</linearGradient>
				<path style="fill:url(#SVGID_00000019657209822572044290000000809984925820862890_);" d="M177.24,183.315
					c-6.467,0.293-18.402-3.436-25.473,2.594c-5.541,4.718-5.156,12.24-4.683,15.457c13.396-3.902,22.822-11.092,23.695-11.772
					c0.03-0.02,0.049-0.038,0.061-0.046c0.006-0.004,0.006-0.004,0.006-0.004c1.632-1.403,2.887-2.647,3.857-3.646
					c0.073-0.081,0.146-0.156,0.218-0.232C176.086,184.452,176.798,183.62,177.24,183.315z"/>
			</g>
		</g>
	</g>
</g>
</svg>
